<?xml version="1.0" encoding="UTF-8" standalone="no"?><!DOCTYPE svg PUBLIC "-//W3C//DTD SVG 1.1//EN" "http://www.w3.org/Graphics/SVG/1.1/DTD/svg11.dtd"><svg width="100%" height="100%" viewBox="0 0 7490 7954" version="1.1" xmlns="http://www.w3.org/2000/svg" xmlns:xlink="http://www.w3.org/1999/xlink" xml:space="preserve" xmlns:serif="http://www.serif.com/" style="fill-rule:evenodd;clip-rule:evenodd;stroke-linecap:round;stroke-linejoin:round;stroke-miterlimit:1.5;"><g><path d="M0.081,1803.04c-4.273,-263.08 160.695,-449.001 493.077,-504.673c1106.85,-185.389 2079.89,-591.16 2937.12,-1194.16c197.599,-138.996 391.638,-139.312 593.237,1.286c837.751,584.257 2028.83,1052.16 3084.68,1205.23c169.598,24.586 389.626,127.973 381.459,375.858c-103.051,3127.77 -1295.66,5062.1 -3331.37,6140.8c-330.489,175.122 -586.709,160.263 -839.609,0c-2274.35,-1441.25 -3278.65,-3564.53 -3318.6,-6024.34Z"/><g><g><path d="M6297.82,5214.55c28.526,25.011 41.089,49.45 21.537,84.728c-87.409,157.709 -174.337,300.573 -260.884,431.714c-17.918,27.151 -62.306,16.8 -85.505,-6.323l-122.165,-121.761c-283.655,-282.719 134.082,-662.732 386.797,-441.157l60.22,52.799Z" style="fill:#ffde85;stroke:#000;stroke-width:2.42px;"/><path d="M5807.14,5974.68c24.913,25.537 36.563,60.519 13.046,92.406c-85.627,116.103 -183.175,230.233 -296.013,341.831c-36.583,36.181 -93.841,24.866 -118.708,-0l-175.829,-177.33c-262.727,-280.198 91.971,-664.504 393.196,-445.838l184.308,188.931Z" style="fill:#ffde85;stroke:#000;stroke-width:2.42px;"/><path d="M5196.72,6729.18c32.83,-30.087 27.126,-87.235 0,-114.76l-166.925,-169.384c-287.2,-291.43 -648.132,103.737 -473.799,343.912l201.257,198.863c29.813,29.458 89.174,29.353 128.733,0c101.417,-75.248 205.06,-161.789 310.734,-258.631Z" style="fill:#ffde85;stroke:#000;stroke-width:2.42px;"/><path d="M4494.61,7247.12c26.3,-17.582 25.512,-59.983 -0,-86.136l-144.146,-147.77c-130.012,-133.281 -610.153,38.536 -426.251,387.335l54.389,77.785c19.62,28.059 52.612,34.348 100.321,10.629c141.415,-70.303 279.931,-151.088 415.687,-241.843Z" style="fill:#ffde85;stroke:#000;stroke-width:2.42px;"/><path d="M3905.61,420.881c-57.909,-57.909 -220.231,-89.61 -340.434,-0c-862.691,643.12 -1838.23,1007.17 -2905.11,1145.31c-192.185,24.885 -299.74,143.081 -295.458,328.681c25.413,1101.5 212.046,1961.68 487.9,2688.3c61.401,161.737 225.507,147.448 290.589,82.072l2642.34,-2654.3c120.176,-120.72 408.251,-127.61 535.287,-0l771.71,773.45c426.359,291.749 870.17,-202.555 564.05,-598.085l-1750.87,-1765.43Z" style="fill:#ffde85;stroke:#000;stroke-width:2.42px;"/></g><path d="M5161,1208.69c-41.246,-43.368 0,-92.394 62.264,-69.485c622.198,228.931 1192.3,375.738 1708.48,437.543c126.914,15.196 196.729,88.475 196.729,212.884c-0,1362.74 -212.066,2139.86 -609.395,3105.4c-16.497,40.09 -51.829,50.479 -83.633,25.32c-350.871,-277.562 -951.372,-77.316 -967.541,437.247c-1.015,32.306 -32.163,62.359 -64.053,64.914c-329.006,26.353 -528.66,253.713 -558.256,546.34c-3.818,37.752 -30.835,80.527 -76.574,84.409c-292.559,24.827 -524.267,248.376 -550.435,548.176c-3.178,36.411 -31.119,71.178 -73.994,75.462c-463.781,46.343 -633.122,441.465 -506.615,790.25c21.79,60.077 -19.655,124.437 -73.899,98.106c-207.406,-100.68 -401.602,-215.588 -591.926,-339.526c-100.524,-65.461 -96.536,-181.133 -27.694,-265.977l1298.83,-1318.64c123.2,-137.306 -136.764,-343.436 -246.48,-221.158l-1264.39,1252.66c-280.675,278.07 -606.573,-110.973 -353.53,-360.425l1259.09,-1241.22c140.274,-138.283 -105.465,-404.618 -272.635,-239.821l-1239.5,1244.57c-235.514,236.475 -600.168,-106.863 -327.164,-380.982l1248.23,-1236.81c117.88,-130.071 -155.498,-379.799 -274.359,-248.645l-1179.25,1210.68c-221.983,221.158 -517.611,-209.04 -342.758,-383.253l2588.76,-2579.28c99.889,-107.116 322.435,-120.701 434.992,-0l567.478,556.495c626.993,614.859 1769.49,-243.504 1141.98,-976.986c-40.061,-46.826 -545.332,-581.816 -822.753,-828.246Z" style="fill:#527fff;stroke:#000;stroke-width:2.42px;"/></g></g></svg>